# xmcd CD database file
#
# Track frame offsets:
#	150
#	11348
#	27843
#	46325
#	62357
#	77088
#	94306
#	106570
#	122773
#	135110
#	149445
#	169327
#	186124
#	200537
#	212323
#
# Disc length: 3037 seconds
#
# Revision: 1
# Processed by: cddbd v1.5.2PL0 Copyright (c) Steve Scherf et al.
# Submitted via: CDex 1.51
#
DISCID=bb0bdb0f
DTITLE=Eddie Taylor - I Feel So Bad The Blues Of Eddie Taylor
DYEAR=1900
DGENRE=Blues
TTITLE0=I Feel So Bad
TTITLE1=Jackson Town
TTITLE2=Stop Breaking Down
TTITLE3=13 Highway
TTITLE4=Stroll Out West
TTITLE5=Sittin' Here Thinkin'
TTITLE6=Going Upside Your Head
TTITLE7=Twelve Year Old Boy
TTITLE8=There'll Be A Day
TTITLE9=Bullcow Blues
TTITLE10=Wreck On 83 Highway
TTITLE11=Blues In The Rain
TTITLE12=Mean Red Spider
TTITLE13=Big Town Playboy
TTITLE14=Greyhound Bus
EXTD=
EXTT0=
EXTT1=
EXTT2=
EXTT3=
EXTT4=
EXTT5=
EXTT6=
EXTT7=
EXTT8=
EXTT9=
EXTT10=
EXTT11=
EXTT12=
EXTT13=
EXTT14=
PLAYORDER=
